
<global>
amp_veltrack=0
ampeg_attack=0.01
ampeg_release=0.50
</global>

<group>
group_label=PP
lpc_hicc1=42
lpc_locc1=0

<region>
hikey=a5
hivel=127
lokey=g#5
loop_end=312622
loop_mode=loop_continuous
loop_start=87550
loop_xfade=27272
lovel=1
lpc=QozXQqvDYMOvUU5DfJr1wppziUIOE5jBNjHwwIdUN8G3G/VBrHOrwZs3A0GwixFA83TZwFajWEBV7ptAAojMwFiPRkC1ZPk/ZwXeP0WVJ8GZRFdBpptrwUQ3A0JsEfvB
lpc_rms=-20.07
offset=5810
pitch_keycenter=a5
sample=Clarinet_vib_PP_A5.opus
</region>

<region>
hikey=b5
hivel=127
lokey=a#5
loop_end=283708
loop_mode=loop_continuous
loop_start=79453
loop_xfade=24750
lovel=1
lpc=QqNIQqmxtsJWiKNCiSI5wg1mrEGEfpDAsyKRP/WV8MCb/zlBjAuUwH7x0b+zco9A9okiPt86lMCcMtNAIMOqvzebOMD0gxxAuE4XQPCPFj/idGbA0mALQXiFacFlkNQ/
lpc_rms=-27.13
offset=3214
pitch_keycenter=b5
sample=Clarinet_vib_PP_B5.opus
</region>

<region>
hikey=c#6
hivel=127
lokey=c6
loop_end=253855
loop_mode=loop_continuous
loop_start=71092
loop_xfade=22145
lovel=1
lpc=n4qnQgsIJMOzwhVDU/2iwnS7SkKySaPBu4sAQTKAt8CNr4hBFp5/wYtwUEHTcn+/GrCKwGPcS0HbP+bAc5kRQLwZ6UB6KZLABKyZQDp8jkAH7SDBpsAtwtf3pELvIzHC
lpc_rms=-20.52
offset=846
pitch_keycenter=c#6
sample=Clarinet_vib_PP_C#6.opus
</region>

<region>
hikey=d#6
hivel=127
lokey=d6
loop_end=301969
loop_mode=loop_continuous
loop_start=84567
loop_xfade=26343
lovel=1
lpc=Q0i1QlveIMMGvPNCgHIGwg55s0FVPsjB53IHQnZ438EvLAJCWMyYwTgGlUFNSQjAXpPIPwuJFkH3k5vA5FBwQTyz18DB+zNBwU5nwR/fO8LpBeVCLZ+Zwj6+v0D57BZB
lpc_rms=-18.47
offset=71
pitch_keycenter=d#6
sample=Clarinet_vib_PP_D#6.opus
</region>

<region>
hikey=f6
hivel=127
lokey=e6
loop_end=256607
loop_mode=loop_continuous
loop_start=71863
loop_xfade=22385
lovel=1
lpc=EndaQtcrwsJ+eMJCfZRgwiEMBUJ/qADBLc12QI6cJj72Le1ArpqZP0GzPkBUlqlASsKlP3RuV0DNZOJAnwnQv2DeikD8xDPCmLuyQk/9psLRtFNC6bzWwVaoJUGQ+zU/
lpc_rms=-19.95
offset=1782
pitch_keycenter=f6
sample=Clarinet_vib_PP_F6.opus
</region>

<region>
hikey=C7
hivel=127
lokey=f#6
loop_end=271384
loop_mode=loop_continuous
loop_start=76001
loop_xfade=23675
lovel=1
lpc=fb8kQnk0b8JwFEBCYjoywUO56b6dIy5Bs36mQDyAmsFDGsRBd9+bwKbVckDHKaw/6XLCQD6p4sAFSnhB0Yc+wjmuXkL2PvHBQbcWPct430BVxejAzamvwOrGkEH1CGDB
lpc_rms=-21.81
pitch_keycenter=G6
sample=Clarinet_vib_PP_G6.opus
</region>

<region>
hikey=a3
hivel=127
lokey=g#3
loop_end=268308
loop_mode=loop_continuous
loop_start=75140
loop_xfade=23406
lovel=1
lpc=tzvLQuYTJMNR9tlCu9OnwtIxnEGVars+4NWzQOSlgsBX2kBBrnORQG7MkkCsgaRAjS/8v1B/nEAYkbRAIAEbwVUBkMBsqlJAbbYXwUvInsDkzz++RJluwFqwdMAY4XtB
lpc_rms=-26.11
offset=316
pitch_keycenter=a3
sample=Clarinet_vib_PP_A3.opus
</region>

<region>
hikey=a4
hivel=127
lokey=g#4
loop_end=274283
loop_mode=loop_continuous
loop_start=76813
loop_xfade=23928
lovel=1
lpc=IijTQmngLcPZrLRCyzhHwhur5kESmYrAsjerQelmwMEsc4lBVnTYwAHQrT88+yRAUfT3wDH8KUAHBN5AKu6/wBGuzr40tbm/5JKFQAxmHcAO65O/5e3yP1nYoT1ccFVA
lpc_rms=-24.51
offset=807
pitch_keycenter=a4
sample=Clarinet_vib_PP_A4.opus
</region>

<region>
hikey=b3
hivel=127
lokey=a#3
loop_end=271524
loop_mode=loop_continuous
loop_start=76040
loop_xfade=23687
lovel=1
lpc=ZjHjQo98RMNbSAhDJ7vJwj1ICEIJBaM/aEUMQT0R/8B5AmdBR5xqQCXSHcAN+7ZAx/DbwNwMikAyqPFAWUFVwW0EhT/29Nc/u9CjwA/JF79DtEPArx4SwHS6pcC7EmFB
lpc_rms=-24.28
offset=1448
pitch_keycenter=b3
sample=Clarinet_vib_PP_B3.opus
</region>

<region>
hikey=b4
hivel=127
lokey=a#4
loop_end=266052
loop_mode=loop_continuous
loop_start=74508
loop_xfade=23209
lovel=1
lpc=pogNQ2LzU8N2D9pC/7eUwn3fG0L+Z+LAKtqjQR1YasG/jxVBBS5UwISP2UAckEDA9j84wTf+4UDrDq6/I4sSQfroOcEZxhw/BLdiQbPDCcHkbKxA/DEHQM6n0j3UGvu/
lpc_rms=-23.18
offset=565
pitch_keycenter=b4
sample=Clarinet_vib_PP_B4.opus
</region>

<region>
hikey=c#4
hivel=127
lokey=c4
loop_end=266531
loop_mode=loop_continuous
loop_start=74642
loop_xfade=23251
lovel=1
lpc=B6OPQsEf6sITBKRCvvOGwp3T7kHsHSrBk7oYQQEnrcDJ3U5Ax6oiQSBe2sDDNDlBMy28wKN6FUDl+o1A/SEbwaJvzb88Sf8/Nc2HwCORSz+IpXXAI9OEQGU76MAtLSpB
lpc_rms=-27.05
offset=201
pitch_keycenter=c#4
sample=Clarinet_vib_PP_C#4.opus
</region>

<region>
hikey=c#5
hivel=127
lokey=c5
loop_end=319284
loop_mode=loop_continuous
loop_start=89416
loop_xfade=27853
lovel=1
lpc=ESVAQhWlq8JFen1CSLANwtmcxUECN67BehOkQeP6uME38rRB4nBowZMBWUEGzuzAR/zSv4DP+EBFavPA+hKgQCKqy8B80shA+wt3wMg4okClsVjAx/W9QBYN5MAvGKVA
lpc_rms=-25.05
offset=7031
pitch_keycenter=c#5
sample=Clarinet_vib_PP_C#5.opus
</region>

<region>
hikey=d#4
hivel=127
lokey=d4
loop_end=257616
loop_mode=loop_continuous
loop_start=72146
loop_xfade=22473
lovel=1
lpc=2KOUQttX38Jk+IpCvatZwtK2oEF6ffPADGQ4Qc0+WcHtWyVB5zodQK3s1r+whC9BdYGnwG8cUkAyB45A00kawZj45z8QRUPA5FWjvijkKsAt36W/R2mNvwpLNsBqfypB
lpc_rms=-28.08
offset=892
pitch_keycenter=d#4
sample=Clarinet_vib_PP_D#4.opus
</region>

<region>
hikey=d#5
hivel=127
lokey=d5
loop_end=299985
loop_mode=loop_continuous
loop_start=84011
loop_xfade=26170
lovel=1
lpc=VbIBQthfVsK/fAhCa3OXwS6GK0HVKKW/KdhbQL0FjcAHB0pApwI6Pj1ahj/vxu2+lMrPv/vIrz+HVd0+vQZiPzsfub8jSuI/kAy5Py+zHz4F0CzAhQQAQAaElsChi99A
lpc_rms=-33.42
offset=4287
pitch_keycenter=d#5
sample=Clarinet_vib_PP_D#5.opus
</region>

<region>
hikey=f4
hivel=127
lokey=e4
loop_end=268856
loop_mode=loop_continuous
loop_start=75293
loop_xfade=23454
lovel=1
lpc=RH4NQ36VccMQIhFDjGWzwhgqOELpgKPAh+q7QTP52cG9Dl9BxicaQPUV3MDE+x9BHRJywdJQ+kATxhdB0zRbwVyhXT/moBBA2fxgQJWvOL+WaaXAAYkPP9zzOsHhdI9B
lpc_rms=-22.77
offset=873
pitch_keycenter=f4
sample=Clarinet_vib_PP_F4.opus
</region>

<region>
hikey=f5
hivel=127
lokey=e5
loop_end=310239
loop_mode=loop_continuous
loop_start=86883
loop_xfade=27064
lovel=1
lpc=fGiOQqbz6sKIRK5CZpxewqDS2EHv+rtAT9AyQFsIBcGC4wpBujUBwXMiEEE2RibAYn/mP0G0EcCFn+pAMTJBwKyRQkCizjRARNo7PzyrhT8y0zjA86cKP0n/er89SStB
lpc_rms=-26.72
offset=3052
pitch_keycenter=f5
sample=Clarinet_vib_PP_F5.opus
</region>

<region>
hivel=127
key=g3
loop_end=263522
loop_mode=loop_continuous
loop_start=73800
loop_xfade=22989
lovel=1
lpc=+UrDQhkcG8NmQcJCehGFwoSJSEEd0kxAN5i2QEtfr8Atyh5Bjc/IP+/sRUAjCWE/2HM1wO1XlECUbJRATWC2wFeJqMC16yRAVydIwM5risDKAZ4/FV5NwKWrob7MsAtB
lpc_rms=-27.03
offset=504
sample=Clarinet_vib_PP_G3.opus
</region>

<region>
hikey=g4
hivel=127
lokey=f#4
loop_end=268817
loop_mode=loop_continuous
loop_start=75282
loop_xfade=23451
lovel=1
lpc=E3QBQ8P5TsO88OpCYb2Dwojb5kHUfYY/uyB2QaL9xsHSNFtBJTm7PzOpesBiPA5BM+8nwZCJskADjx9Blr81wSpFsMCgaHo+wFGSP84iZz+aOB3AX0DMPqgNv78t2lBB
lpc_rms=-24.45
offset=955
pitch_keycenter=g4
sample=Clarinet_vib_PP_G4.opus
</region>

<region>
hikey=g5
hivel=127
lokey=f#5
loop_end=311338
loop_mode=loop_continuous
loop_start=87191
loop_xfade=27160
lovel=1
lpc=AY6TQl7+FcPFGQtDf06kwvVZR0LG5A/BV5JEwFSTNsGRfoNBdPmqwIPp5kB6wsJAAfyLwMGZncBrFvRAeyS+vyvhDUDsVRVBP3GFP7lyFsE4OLlAZcGPwBuEZ0H70rq/
lpc_rms=-23.79
offset=2241
pitch_keycenter=g5
sample=Clarinet_vib_PP_G5.opus
</region>
</group>

<group>
group_label=MF
lpc_hicc1=84
lpc_locc1=43

<region>
hikey=a3
hivel=127
lokey=g#3
loop_end=281289
loop_mode=loop_continuous
loop_start=78775
loop_xfade=24539
lovel=1
lpc=FpaiQjxtY8OT04BDGJE/w4yC/kKE/13CFKAaQdacTcGAd4FBROA1wBiYLz+BMWlAsFZEwS+8E0Evm2BALRCGwYyuLEHd1atALxhVwVfDFEGFhh1A/2QLwZkSo0BISCG/
lpc_rms=-19.51
offset=3393
pitch_keycenter=a3
sample=Clarinet_vib_MF_A3.opus
</region>

<region>
hikey=a4
hivel=127
lokey=g#4
loop_end=314847
loop_mode=loop_continuous
loop_start=88173
loop_xfade=27466
lovel=1
lpc=umOKQlBlHsPe+glD9MyEwmmCH0KQ28TBg1NSQcu+0sHvseRBxkICwRuEx8AcWT9BX61nwRLKCUGEdf+/B5fUP8CdPMClirtAA3YAwQ+GqkBF7KbATVDtQMgVuMCMxqVA
lpc_rms=-20.35
offset=1013
pitch_keycenter=a4
sample=Clarinet_vib_MF_A4.opus
</region>

<region>
hikey=a5
hivel=127
lokey=g#5
loop_end=308141
loop_mode=loop_continuous
loop_start=86295
loop_xfade=26881
lovel=1
lpc=ALPIQlDuYMPBwm5DQyEewyZKskIsRa7BHiHcwdXolEFjwMxBzyZqwWhde8H7RrdAqnvKQXZHlcFd6GZBiaZ+wdgOrcD96hBCxrcCwYOQ1sHbOE1BDTtpQf3LwUDzbnvB
lpc_rms=-14.69
offset=5160
pitch_keycenter=a5
sample=Clarinet_vib_MF_A5.opus
</region>

<region>
hikey=b3
hivel=127
lokey=a#3
loop_end=315628
loop_mode=loop_continuous
loop_start=88392
loop_xfade=27534
lovel=1
lpc=RROdQkBSWsOOr3dD99w1w0hU5UKg+UfC4vBbQQ9DfMFiu5RBVkWwwFBBmsAyFX5BqnHMwVqgnkFPUY+/ETmxwTjXrkFQ7Na/ePkfweV/XkF4trPAO/1ewDQEcMDKaKxA
lpc_rms=-20.21
offset=2575
pitch_keycenter=b3
sample=Clarinet_vib_MF_B3.opus
</region>

<region>
hikey=b4
hivel=127
lokey=a#4
loop_end=315822
loop_mode=loop_continuous
loop_start=88446
loop_xfade=27551
lovel=1
lpc=Rg/FQiSAU8OtMD5DY7/mwl/fm0JotTXCiTS7QZCf78HC+wBCcdWcwcxTYEFTSe3ARig4wO+nLEFr0KfB/ASAQVmfwMDEI9tAPUYAQNN7WcEtaXBB7zXzv3HMJcAiyYxA
lpc_rms=-17.20
offset=1056
pitch_keycenter=b4
sample=Clarinet_vib_MF_B4.opus
</region>

<region>
hikey=b5
hivel=127
lokey=a#5
loop_end=297026
loop_mode=loop_continuous
loop_start=83183
loop_xfade=25911
lovel=1
lpc=RrQqQuTMlcIrrZlCWU84wsSomEGr6AxAM3QrwM/W+785fjJBGnrIwGiXg0BFvjTAsB1zQYD0pcHxzbBBhYwwwXa/E0FkOwHBM3o5QYGPMsBtnovAikqHQTsZgsFJBqE/
lpc_rms=-20.00
offset=1809
pitch_keycenter=b5
sample=Clarinet_vib_MF_B5.opus
</region>

<region>
hikey=c#4
hivel=127
lokey=c4
loop_end=315965
loop_mode=loop_continuous
loop_start=88486
loop_xfade=27564
lovel=1
lpc=F2tDQqqlBMM7KBBDKdjNwgeWhUJdGM/B+DmeQLX0J8Gv7EFB8xqqwLTRR8ASoUBBFg5FwSiJmEDBfCI/q3z0wLgbu0CXfbVAj4wRwfc3GUEzu+XA8XpFQEAbu8B9jI1A
lpc_rms=-23.68
offset=1392
pitch_keycenter=c#4
sample=Clarinet_vib_MF_C#4.opus
</region>

<region>
hikey=c#5
hivel=127
lokey=c5
loop_end=321758
loop_mode=loop_continuous
loop_start=90109
loop_xfade=28069
lovel=1
lpc=NRCeQnZtNcN4QiRDCkK1wtK1PkLihVXB6GfkwNzfuEDV/yXArUyvP05hqEDwPSjAMH5yvwuTzEBqivnAggcvQAXLUsEvMJVB2C5gwDwSEEC+NbrAVtMOQffQi8GNPE9B
lpc_rms=-18.53
offset=6476
pitch_keycenter=c#5
sample=Clarinet_vib_MF_C#5.opus
</region>

<region>
hikey=c#6
hivel=127
lokey=c6
loop_end=314734
loop_mode=loop_continuous
loop_start=88142
loop_xfade=27456
lovel=1
lpc=5NVXQuI9vsLcuqZChnAwwtmLAULrwZrBt0CeQVsmh8EamptB6z8MwV3lL0ADqspAsk8WwIm4GUAhiItAd1RxP7/pDcAVfQRBVYM1wDAhU0C0d5FALOMxwgobdEI1tN/B
lpc_rms=-18.06
offset=1766
pitch_keycenter=c#6
sample=Clarinet_vib_MF_C#6.opus
</region>

<region>
hikey=d#4
hivel=127
lokey=d4
loop_end=301017
loop_mode=loop_continuous
loop_start=84300
loop_xfade=26260
lovel=1
lpc=zJ9RQgpr98LMsuJCCOuNws/oRUJ98s/BWvKCQSUiysG6OpZBOpgywJJH1cCSnFhB8Mg3wWnEzkCdnoc+7OPfwLOSxEB9hjfAkgqTP0W1TsATfqJAbPyRwC8niL96Y3hA
lpc_rms=-23.72
offset=1648
pitch_keycenter=d#4
sample=Clarinet_vib_MF_D#4.opus
</region>

<region>
hikey=d#5
hivel=127
lokey=d5
loop_end=311261
loop_mode=loop_continuous
loop_start=87169
loop_xfade=27153
lovel=1
lpc=GuceQuuC0sIeSf9CAOTMwv25f0Kj+bnBu+YDPynIPcDxC0BB9WcWwb2qQUA5pixAPeYOwUy7K0E3gybAucugwIuFbEDcEtFAOoJgwSOic0FDV/rAcv+8vjAwPb9mFGxA
lpc_rms=-21.18
offset=2094
pitch_keycenter=d#5
sample=Clarinet_vib_MF_D#5.opus
</region>

<region>
hikey=d#6
hivel=127
lokey=d6
loop_end=312407
loop_mode=loop_continuous
loop_start=87490
loop_xfade=27253
lovel=1
lpc=BNySQlNc5cLuDJRCLXjQv8lInUASCQHBHUBkQaH3rsDo5hpBb9ZXvzCkzD+ZSs1AY0keQBarmT/jaTpAlF2fQAXdm78vl11Bg1igwbk0J8I+2cZCCW6LwomuCkH4ibQ/
lpc_rms=-17.24
offset=1612
pitch_keycenter=d#6
sample=Clarinet_vib_MF_D#6.opus
</region>

<region>
hikey=f4
hivel=127
lokey=e4
loop_end=313443
loop_mode=loop_continuous
loop_start=87780
loop_xfade=27344
lovel=1
lpc=5s3KQvKRfsMQI4JDCNQyw8XN9ELiUmXCu9OiQYUoE8J4gg9CX+xbwZ9NoLw9mIBBA/7QwR4WqkF+cAbBd49RwVCElUFB7RXB2X95QO9pLUFp2HrBedYwQbPSn8Hu1nZB
lpc_rms=-18.10
offset=2486
pitch_keycenter=f4
sample=Clarinet_vib_MF_F4.opus
</region>

<region>
hikey=f5
hivel=127
lokey=e5
loop_end=316446
loop_mode=loop_continuous
loop_start=88621
loop_xfade=27606
lovel=1
lpc=ECRdQkMsBMNAORlDrej3wgE9nEKi2KnB9jPGwPtYO0DThqJAWhyXwD572UBU6dq/sciZwOdhiECBBd1AjIQpwdqrHkHiL8fA4YA8QFvczUDslxTBKs4OQbLjKcENmyZB
lpc_rms=-20.92
offset=2020
pitch_keycenter=f5
sample=Clarinet_vib_MF_F5.opus
</region>

<region>
hikey=f6
hivel=127
lokey=e6
loop_end=315032
loop_mode=loop_continuous
loop_start=88225
loop_xfade=27482
lovel=1
lpc=p3M4Qg+KmcKpYp9CqlklwvfTrUGwF7Y/ae6EQN/q4z6OJCdBMEgMQPiqzkC/a3VAo8/nQH6uYkBjrqpAgWQHQe9GB8BEd/PBaxCQQiBticK5pzZCFjSRwRSbnEBwaC1A
lpc_rms=-16.77
offset=5260
pitch_keycenter=f6
sample=Clarinet_vib_MF_F6.opus
</region>

<region>
hivel=127
key=g3
loop_end=275214
loop_mode=loop_continuous
loop_start=77074
loop_xfade=24009
lovel=1
lpc=1zeFQk8DPcNiH1RD57oLww8El0JNRwjCf5VdQbWO8cANIY3A9D3TQUYNCsLRxb9BAw1owV+P0ECHWQZA9AEBwUkwqD9rPyhBz2tUwRkXC0FdKh7A0SKFQGeW5sDA/lFA
lpc_rms=-20.47
sample=Clarinet_vib_MF_G3.opus
</region>

<region>
hikey=g4
hivel=127
lokey=f#4
loop_end=264197
loop_mode=loop_continuous
loop_start=73989
loop_xfade=23048
lovel=1
lpc=6DCuQu2JRsNt6jRD0ijVwjOShkK+xhjCWH/tQdWBK8LlLQdCDMUhwaghkMDWB31BcwpQwZxfyD8FVw9AbvCzwEpKnkBHri8/gQcMv2FMvr5SwWXAmMhHQd4azsG03JxB
lpc_rms=-19.50
offset=847
pitch_keycenter=g4
sample=Clarinet_vib_MF_G4.opus
</region>

<region>
hikey=g5
hivel=127
lokey=f#5
loop_end=306043
loop_mode=loop_continuous
loop_start=85708
loop_xfade=26698
lovel=1
lpc=xQSpQo63SsM98nZDosBCw56j9EJweCvCSh3hP8GaLT9ICXBBbDZDwcADRUBMcY9BvDMtwXsAw8DiYJFBp/UywcXhKUDF8YNBRWEPweaGVsBYRwFBcFWzP/GPSMBhMiFB
lpc_rms=-17.46
offset=9369
pitch_keycenter=g5
sample=Clarinet_vib_MF_G5.opus
</region>

<region>
hikey=C7
hivel=127
lokey=f#6
loop_end=296642
loop_mode=loop_continuous
loop_start=83075
loop_xfade=25878
lovel=1
lpc=NhIJQpTMFsIlh8dB1TWDwExUNUCczK5AqJL2QJxujcGCJKpB4pQFweFT50BwGSfAMjarQHV8ysACllpBZpcewuPQ80HoaQPB+qHVwOoMdEBGUX/AnqcIwUiNgEGxjzPB
lpc_rms=-14.61
offset=1385
pitch_keycenter=G6
sample=Clarinet_vib_MF_G6.opus
</region>
</group>

<group>
group_label=FF
lpc_hicc1=127
lpc_locc1=85

<region>
hikey=a3
hivel=127
lokey=g#3
loop_end=281152
loop_mode=loop_continuous
loop_start=78737
loop_xfade=24527
lovel=1
lpc=X1QKQheT0MLMVQFDoOSowujD6UEiIF3AxKqnv2Pqq8BKByNBa7qTwKhOx0Cow0vB50kZQdsEbcAJN8lAlkM8wTtO4kCk0gBAoHaMwCeYqD/M/QFAy1mPwIVdtUBTpTHA
lpc_rms=-15.97
offset=2126
pitch_keycenter=a3
sample=Clarinet_vib_FF_A3.opus
</region>

<region>
hikey=a4
hivel=127
lokey=g#4
loop_end=312309
loop_mode=loop_continuous
loop_start=87463
loop_xfade=27245
lovel=1
lpc=ZkEkQjPa18JG7O5CMQaKwsW4xkEk+kPBRUmGQaPt18HdLNVBPMM/wWP1or6CiENAIHH9v0hOkD9xhZ6/beOSv5XijEBL7DY/5fj2wFYAZUCwFLa/qihJQQfslsFKKipB
lpc_rms=-16.91
offset=13556
pitch_keycenter=a4
sample=Clarinet_vib_FF_A4.opus
</region>

<region>
hikey=a5
hivel=127
lokey=g#5
loop_end=310108
loop_mode=loop_continuous
loop_start=86846
loop_xfade=27053
lovel=1
lpc=6Z9mQu8HCcNsMjxDqcAsw9K9+kK6pGrCbvmgQW7JfcEOch9CVbUSwiM8g0Fc0e1AUYcBwNTEJsGC0OlBWLG6waQ3VUCOQqtBGq/ZwEWyr8GfCDVC6wsawk3+7EEoqhHB
lpc_rms=-10.95
offset=7316
pitch_keycenter=a5
sample=Clarinet_vib_FF_A5.opus
</region>

<region>
hikey=b3
hivel=127
lokey=a#3
loop_end=317296
loop_mode=loop_continuous
loop_start=88859
loop_xfade=27680
lovel=1
lpc=m0oaQoV47MKJbBRDgQTJwtkzKUJcFRzB8iTdwGoWyUADjYdAeOYDwaoGOUGcSETBZeyBQNAiZz6t2rBAtg07wcXDwEDEjK9A5DjqwGFxbEDEKeu/5EGAv6TsSkAC+8e/
lpc_rms=-17.24
offset=2021
pitch_keycenter=b3
sample=Clarinet_vib_FF_B3.opus
</region>

<region>
hikey=b4
hivel=127
lokey=a#4
loop_end=312580
loop_mode=loop_continuous
loop_start=87539
loop_xfade=27268
lovel=1
lpc=LNSBQlEsGMOLVRZDL7ecwhX1FkJGPN/BSRNuQZF8EcEADTVBcZ80wQWtFEHkr7vAcCdwQIrJFL/4VD7APlTCP3uHtMDrRUpBsR+CwDZPTsEIBYtB51LRv659EsF0iBRB
lpc_rms=-14.89
offset=757
pitch_keycenter=b4
sample=Clarinet_vib_FF_B4.opus
</region>

<region>
hikey=b5
hivel=127
lokey=a#5
loop_end=307146
loop_mode=loop_continuous
loop_start=86017
loop_xfade=26794
lovel=1
lpc=dQfkQfPvMsJx5UFCvo8HwhjjnUGF55rAmnzDPtXQqD9Nt6FAnWG6wFo97EBHTJ7ADkgWQQyZHsFkrztBS8EBwUP2HEFQ9OXAGwPJQOYScT6WnuO/HlKqQDCpCL9zoNvA
lpc_rms=-17.80
offset=10905
pitch_keycenter=b5
sample=Clarinet_vib_FF_B5.opus
</region>

<region>
hikey=c#4
hivel=127
lokey=c4
loop_end=315517
loop_mode=loop_continuous
loop_start=88361
loop_xfade=27525
lovel=1
lpc=VMgEQuIl0ML2RQVD/FC4wutBLEJapYHBD8rLvz7DbEBjZ/FA2S4RwTazlUAF1z7A9j0rP8KhH8ASFdZAAP37wJl+3kAizSnA8rVDwFTc3j+LAAdAPQbiPxHMmsAT3e8/
lpc_rms=-20.25
offset=1233
pitch_keycenter=c#4
sample=Clarinet_vib_FF_C#4.opus
</region>

<region>
hikey=c#5
hivel=127
lokey=c5
loop_end=287695
loop_mode=loop_continuous
loop_start=80569
loop_xfade=25098
lovel=1
lpc=gVoyQp7j58KVGv5CDgGpwi+PL0JR1RnB/8V4wUCUjEGSvrnAmu01wJFxH0Eh0VjBtDdMQUFFGMH8IQxBw+dKweyGC0G49GFA1OAZwchRRUFkVUTBeWVdQS+cYcFFadlA
lpc_rms=-15.94
offset=6502
pitch_keycenter=c#5
sample=Clarinet_vib_FF_C#5.opus
</region>

<region>
hikey=c#6
hivel=127
lokey=c6
loop_end=310590
loop_mode=loop_continuous
loop_start=86981
loop_xfade=27095
lovel=1
lpc=9rVDQquMsMLsd6dC5bYqwkz4w0HiOJPAo+HeQCNtQMDKxUlB6bnSwBYnCUFawXQ/E8FHQBd4NkAuK9tA32TOwODLjUG5lGjBYzqaQU3OQMFIx7dBA3RNwlUQYkJuv6zB
lpc_rms=-15.49
offset=827
pitch_keycenter=c#6
sample=Clarinet_vib_FF_C#6.opus
</region>

<region>
hikey=d#4
hivel=127
lokey=d4
loop_end=316650
loop_mode=loop_continuous
loop_start=88678
loop_xfade=27624
lovel=1
lpc=X+3LQT2WjcIQnJpCEGUywjMMvEFA1YDBlD6kQBM+e8Bh3hhB2/PJwCJvSj5bTX4/qHq3PzqqA8AnbRe/vc5Av24tjED+TEO/imxXwPLP+7471CFA92CKPz1QSMBmNuU/
lpc_rms=-21.46
offset=1051
pitch_keycenter=d#4
sample=Clarinet_vib_FF_D#4.opus
</region>

<region>
hikey=d#5
hivel=127
lokey=d5
loop_end=316069
loop_mode=loop_continuous
loop_start=88516
loop_xfade=27573
lovel=1
lpc=Cg2iQbWOYcKVfJZC3biIwpqYR0K4As3BpF6dQNXyjD+N61VAFpTMwFgm9EBMe7TAzlEqQDVPO8Dp3wBB3whUwdi8UEH/EKDAojmAwOcBAkFQ9NHAe9s0QLyqY7/GcqU/
lpc_rms=-19.51
offset=1644
pitch_keycenter=d#5
sample=Clarinet_vib_FF_D#5.opus
</region>

<region>
hikey=d#6
hivel=127
lokey=d6
loop_end=304219
loop_mode=loop_continuous
loop_start=85197
loop_xfade=26539
lovel=1
lpc=fTsmQnmGjMLVm2pCNa+RwfKv1kCwWmXAXQFhQR4eBMEJLSVBrVJbwJoIKkGYxb7AJ+0fQUy0yb9JQ9hAGlAiwAVHA0G2owjAIOcBQbDKHsJgQoFCam8qwgwvQ0Gc9i8+
lpc_rms=-13.35
offset=6245
pitch_keycenter=d#6
sample=Clarinet_vib_FF_D#6.opus
</region>

<region>
hikey=f4
hivel=127
lokey=e4
loop_end=314693
loop_mode=loop_continuous
loop_start=88130
loop_xfade=27453
lovel=1
lpc=O0kJQs/E3MIPAxtDCdv/wjval0JgASPCoI7CQfL/q8G6tWtB4tRUQOIJe8Hr0pRBmBN6wQ1A1EBz8bc/CcXMwOkYEkFoZN7Ae72PQIumwMAOac8/5ywcQSorSMFeIadA
lpc_rms=-16.28
offset=14705
pitch_keycenter=f4
sample=Clarinet_vib_FF_F4.opus
</region>

<region>
hikey=f5
hivel=127
lokey=e5
loop_end=315807
loop_mode=loop_continuous
loop_start=88442
loop_xfade=27550
lovel=1
lpc=1NkiQoKt1MJvgw5D68oHw6rmzEKQXj/CpAlBQI5Ic0Fuo/3Av9oRwTwHnUEQWjDBBouiPlhnA0EpmwXB0JuXPcNMG0ENjKzAOpsZwYSH6kH5tCTCXGM5QubJFcKguolB
lpc_rms=-15.33
offset=1082
pitch_keycenter=f5
sample=Clarinet_vib_FF_F5.opus
</region>

<region>
hikey=f6
hivel=127
lokey=e6
loop_end=313828
loop_mode=loop_continuous
loop_start=87888
loop_xfade=27377
lovel=1
lpc=yPHqQeCrIcJxfSdCQZG+wWPDm0HJYlk+680FQCewTUCcHgVBSOjwP1qn4UBSe4FAntfCQE1lSUAi1tVAfT7FQMILhb5QIHvBORgUQnb2AcLr7etBs2iMwSv37kCq3RtA
lpc_rms=-15.12
offset=6207
pitch_keycenter=f6
sample=Clarinet_vib_FF_F6.opus
</region>

<region>
hivel=127
key=g3
loop_end=284032
loop_mode=loop_continuous
loop_start=79543
loop_xfade=24778
lovel=1
lpc=Wib5Qdt2uMKWCNpC59OAwpCInkGzx6rAEHJcQMlyZ8AgDExAMUQWQJh4sr+9O9HAsy75QJ0+a8Dp0yJAQ57GwLs8xkBqbai/EeQlwEnTTkD7FA+/zVnKv0Mipz90orq+
lpc_rms=-15.81
offset=1023
sample=Clarinet_vib_FF_G3.opus
</region>

<region>
hikey=g4
hivel=127
lokey=f#4
loop_end=310906
loop_mode=loop_continuous
loop_start=87070
loop_xfade=27122
lovel=1
lpc=tIr9QU5tscIMZdlCsFeVwhcVB0IJIJ7BVdWoQby5vcFEq5tB5M8Bwb4hAb+Tlu8/h9QLQf7HsME/+sdB0NimwTdkeUGkdSrBJ4cPQfuDT8FIaBFB7dWzQEP0RcH1gtRA
lpc_rms=-18.64
offset=614
pitch_keycenter=g4
sample=Clarinet_vib_FF_G4.opus
</region>

<region>
hikey=g5
hivel=127
lokey=f#5
loop_end=325442
loop_mode=loop_continuous
loop_start=91140
loop_xfade=28391
lovel=1
lpc=1vsQQmHUpcKnwNBCJnSswkCgZ0IAoMnB2OHdQOy+lz8VYT1ArWIpPyHG0sAejg1BLQQsQRP5z8FMT/pBQ8nLwb5arUH/aEbBTyRcQXcyZsGVLCVBdJwHQTVqk8F3b3BB
lpc_rms=-17.36
offset=17690
pitch_keycenter=g5
sample=Clarinet_vib_FF_G5.opus
</region>

<region>
hikey=C7
hivel=127
lokey=f#6
loop_end=305905
loop_mode=loop_continuous
loop_start=85669
loop_xfade=26686
lovel=1
lpc=RmogQhzUGMKaT81B+jv5QL4Nxr6fkoJBxAEMQQqs1MDrUL1BhCJGQLUZdkHsSLBAlfJyQYWGO0D2I6RByacJwnKrHUKd+0o9y5IWwbqdeEE5abjAt7p0v5cceEFy+eXA
lpc_rms=-11.34
pitch_keycenter=G6
sample=Clarinet_vib_FF_G6.opus
</region>
</group>